<svg width="1600" height="569" viewBox="0 0 1600 569" fill="none" xmlns="http://www.w3.org/2000/svg">
<g clip-path="url(#clip0_2013_620)">
<mask id="mask0_2013_620" style="mask-type:luminance" maskUnits="userSpaceOnUse" x="0" y="0" width="1600" height="569">
<path d="M0 569L1600 569L1600 0.00012207L4.97435e-05 -1.78061e-05L0 569Z" fill="white"/>
</mask>
<g mask="url(#mask0_2013_620)">
<mask id="mask1_2013_620" style="mask-type:luminance" maskUnits="userSpaceOnUse" x="-986" y="-747" width="3252" height="1674">
<path d="M-253.72 926.997L2266 350.427L1533.88 -746.524L-985.84 -169.953L-253.72 926.997Z" fill="white"/>
</mask>
<g mask="url(#mask1_2013_620)">
<g opacity="0.8" filter="url(#filter0_f_2013_620)">
<path d="M560.9 -250.087L2003.41 -43.0185L1793.4 458.567L350.9 251.501L560.9 -250.087Z" fill="url(#paint0_radial_2013_620)"/>
<path d="M-683.6 282.882L133.809 -426.157L549.559 -261.829L-267.85 447.211L-683.6 282.882Z" fill="url(#paint1_linear_2013_620)"/>
<mask id="mask2_2013_620" style="mask-type:luminance" maskUnits="userSpaceOnUse" x="-684" y="-427" width="1234" height="875">
<path d="M-683.6 282.882L133.809 -426.157L549.559 -261.829L-267.85 447.211L-683.6 282.882Z" fill="#B6D2FF"/>
</mask>
<g mask="url(#mask2_2013_620)">
<path d="M-680.508 284.106L136.9 -424.936L130.709 -427.378L-686.7 281.66L-680.508 284.106Z" fill="#FFB6B6"/>
</g>
</g>
</g>
<mask id="mask3_2013_620" style="mask-type:alpha" maskUnits="userSpaceOnUse" x="-245" y="-215" width="1488" height="761">
<path d="M-244.167 545.291L1242.5 545.292L1242.5 -214.56L-244.167 -214.56L-244.167 545.291Z" fill="url(#paint2_linear_2013_620)"/>
</mask>
<g mask="url(#mask3_2013_620)">
<g filter="url(#filter1_f_2013_620)">
<path d="M636.616 -262.896L1074.17 39.405L350.875 569L-86.6755 266.697L636.616 -262.896Z" fill="url(#paint3_linear_2013_620)"/>
<mask id="mask4_2013_620" style="mask-type:luminance" maskUnits="userSpaceOnUse" x="-87" y="-263" width="1162" height="832">
<path d="M636.616 -262.896L1074.17 39.405L350.875 569L-86.6755 266.697L636.616 -262.896Z" fill="#88E2FF"/>
</mask>
<g mask="url(#mask4_2013_620)">
<path d="M-83.6843 268.762L639.607 -260.833L633.624 -264.965L-89.6592 264.632L-83.6843 268.762Z" fill="#FFD788"/>
</g>
</g>
</g>
<mask id="mask5_2013_620" style="mask-type:alpha" maskUnits="userSpaceOnUse" x="0" y="0" width="1600" height="569">
<path d="M0 569L1600 569L1600 0.00012207L4.97435e-05 -1.78061e-05L0 569Z" fill="url(#paint4_linear_2013_620)"/>
</mask>
<g mask="url(#mask5_2013_620)">
<g filter="url(#filter2_f_2013_620)">
<path d="M1908.3 474.049L1480.8 783.534L429.758 49.0731L857.262 -260.412L1908.3 474.049Z" fill="url(#paint5_linear_2013_620)"/>
<mask id="mask6_2013_620" style="mask-type:luminance" maskUnits="userSpaceOnUse" x="429" y="-261" width="1480" height="1045">
<path d="M1908.3 474.049L1480.8 783.534L429.758 49.0731L857.262 -260.412L1908.3 474.049Z" fill="#88E2FF"/>
</mask>
<g mask="url(#mask6_2013_620)">
<path d="M854.342 -258.296L1905.38 476.162L1911.22 471.935L860.182 -262.528L854.342 -258.296Z" fill="#FFD788"/>
</g>
</g>
</g>
<mask id="mask7_2013_620" style="mask-type:luminance" maskUnits="userSpaceOnUse" x="-16" y="-307" width="1949" height="1163">
<path d="M-11.2987 704.941L1932.98 855.497L1929.26 -155.572L-15.0109 -306.128L-11.2987 704.941Z" fill="white"/>
</mask>
<g mask="url(#mask7_2013_620)">
<g opacity="0.75" filter="url(#filter3_f_2013_620)">
<mask id="mask8_2013_620" style="mask-type:alpha" maskUnits="userSpaceOnUse" x="3" y="0" width="1597" height="571">
<path d="M3.33374 570.185L1599.17 570.186L1599.17 0.000305176L3.33379 0.000165664L3.33374 570.185Z" fill="url(#paint6_linear_2013_620)"/>
</mask>
<g mask="url(#mask8_2013_620)">
<path d="M711.875 -392.361L1846.02 472.698L1331.62 813.86L197.483 -51.198L711.875 -392.361Z" fill="url(#paint7_linear_2013_620)"/>
<mask id="mask9_2013_620" style="mask-type:luminance" maskUnits="userSpaceOnUse" x="197" y="-394" width="1652" height="1209">
<path d="M197.485 814.036L1848.68 814.036L1848.68 -393.98L197.485 -393.98L197.485 814.036Z" fill="white"/>
<path d="M711.875 -392.361L1846.02 472.698L1331.62 813.86L197.483 -51.198L711.875 -392.361Z" fill="#CDFFE8"/>
</mask>
<g mask="url(#mask9_2013_620)">
<path d="M709.433 -390.743L1843.58 474.315L1848.45 471.081L714.308 -393.979L709.433 -390.743Z" fill="#FFF1CD"/>
</g>
</g>
</g>
</g>
</g>
</g>
<defs>
<filter id="filter0_f_2013_620" x="-843.6" y="-586.157" width="3007.9" height="1204.72" filterUnits="userSpaceOnUse" color-interpolation-filters="sRGB">
<feFlood flood-opacity="0" result="BackgroundImageFix"/>
<feBlend mode="normal" in="SourceGraphic" in2="BackgroundImageFix" result="shape"/>
<feGaussianBlur stdDeviation="80" result="effect1_foregroundBlur_2013_620"/>
</filter>
<filter id="filter1_f_2013_620" x="-126.675" y="-302.896" width="1240.84" height="911.895" filterUnits="userSpaceOnUse" color-interpolation-filters="sRGB">
<feFlood flood-opacity="0" result="BackgroundImageFix"/>
<feBlend mode="normal" in="SourceGraphic" in2="BackgroundImageFix" result="shape"/>
<feGaussianBlur stdDeviation="20" result="effect1_foregroundBlur_2013_620"/>
</filter>
<filter id="filter2_f_2013_620" x="389.758" y="-300.412" width="1558.55" height="1123.95" filterUnits="userSpaceOnUse" color-interpolation-filters="sRGB">
<feFlood flood-opacity="0" result="BackgroundImageFix"/>
<feBlend mode="normal" in="SourceGraphic" in2="BackgroundImageFix" result="shape"/>
<feGaussianBlur stdDeviation="20" result="effect1_foregroundBlur_2013_620"/>
</filter>
<filter id="filter3_f_2013_620" x="141.483" y="-55.9999" width="1513.68" height="682.185" filterUnits="userSpaceOnUse" color-interpolation-filters="sRGB">
<feFlood flood-opacity="0" result="BackgroundImageFix"/>
<feBlend mode="normal" in="SourceGraphic" in2="BackgroundImageFix" result="shape"/>
<feGaussianBlur stdDeviation="28" result="effect1_foregroundBlur_2013_620"/>
</filter>
<radialGradient id="paint0_radial_2013_620" cx="0" cy="0" r="1" gradientUnits="userSpaceOnUse" gradientTransform="translate(1200.83 -29.6353) rotate(81.2853) scale(159.502 732.782)">
<stop stop-color="#FC8E3F"/>
<stop offset="0.661142" stop-color="#C183FF" stop-opacity="0.489583"/>
<stop offset="1" stop-color="#9360FF" stop-opacity="0"/>
</radialGradient>
<linearGradient id="paint1_linear_2013_620" x1="-274.9" y1="-71.6347" x2="-87.3546" y2="181.242" gradientUnits="userSpaceOnUse">
<stop stop-color="#FCFF5F"/>
<stop offset="0.395833" stop-color="#E1FF69" stop-opacity="0.57"/>
<stop offset="1" stop-color="#FFB55F" stop-opacity="0"/>
</linearGradient>
<linearGradient id="paint2_linear_2013_620" x1="290.833" y1="-26.6718" x2="429.708" y2="340.219" gradientUnits="userSpaceOnUse">
<stop/>
<stop offset="1" stop-opacity="0"/>
</linearGradient>
<linearGradient id="paint3_linear_2013_620" x1="855.392" y1="-111.743" x2="374.017" y2="584.99" gradientUnits="userSpaceOnUse">
<stop stop-color="#FFD25F"/>
<stop offset="0.395833" stop-color="#FFD569" stop-opacity="0.57"/>
<stop offset="1" stop-color="#FF695F" stop-opacity="0"/>
</linearGradient>
<linearGradient id="paint4_linear_2013_620" x1="965.833" y1="6.01995e-05" x2="931.295" y2="283.031" gradientUnits="userSpaceOnUse">
<stop/>
<stop offset="1" stop-opacity="0"/>
</linearGradient>
<linearGradient id="paint5_linear_2013_620" x1="1694.55" y1="628.791" x2="984.268" y2="-352.355" gradientUnits="userSpaceOnUse">
<stop stop-color="#E9FF5F"/>
<stop offset="0.395833" stop-color="#FFC369" stop-opacity="0.57"/>
<stop offset="1" stop-color="#FF5F5F" stop-opacity="0"/>
</linearGradient>
<linearGradient id="paint6_linear_2013_620" x1="1044.17" y1="-162.283" x2="963.473" y2="387.851" gradientUnits="userSpaceOnUse">
<stop/>
<stop offset="1" stop-opacity="0"/>
</linearGradient>
<linearGradient id="paint7_linear_2013_620" x1="999.392" y1="-2.56678" x2="910.661" y2="296.187" gradientUnits="userSpaceOnUse">
<stop stop-color="#FFFB98"/>
<stop offset="0.479167" stop-color="#FFBF60" stop-opacity="0.74"/>
<stop offset="1" stop-color="#FF8383" stop-opacity="0"/>
</linearGradient>
<clipPath id="clip0_2013_620">
<rect width="1600" height="569" fill="white" transform="translate(1600 569) rotate(-180)"/>
</clipPath>
</defs>
</svg>
