<svg width="1600" height="1600" viewBox="0 0 1600 1600" fill="none" xmlns="http://www.w3.org/2000/svg">
<g clip-path="url(#clip0_0_556)">
<rect width="1600" height="1600" fill="url(#paint0_linear_0_556)"/>
<g clip-path="url(#clip1_0_556)">
<mask id="mask0_0_556" style="mask-type:luminance" maskUnits="userSpaceOnUse" x="0" y="0" width="1600" height="569">
<path d="M0 569L1600 569L1600 0.00012207L4.97435e-05 -1.78061e-05L0 569Z" fill="white"/>
</mask>
<g mask="url(#mask0_0_556)">
<mask id="mask1_0_556" style="mask-type:luminance" maskUnits="userSpaceOnUse" x="-986" y="-747" width="3252" height="1674">
<path d="M-253.72 926.997L2266 350.427L1533.88 -746.524L-985.84 -169.953L-253.72 926.997Z" fill="white"/>
</mask>
<g mask="url(#mask1_0_556)">
<g opacity="0.8" filter="url(#filter0_f_0_556)">
<path d="M560.9 -250.087L2003.41 -43.0185L1793.4 458.567L350.9 251.501L560.9 -250.087Z" fill="url(#paint1_radial_0_556)"/>
<path d="M-683.6 282.882L133.809 -426.157L549.559 -261.829L-267.85 447.211L-683.6 282.882Z" fill="url(#paint2_linear_0_556)"/>
<mask id="mask2_0_556" style="mask-type:luminance" maskUnits="userSpaceOnUse" x="-684" y="-427" width="1234" height="875">
<path d="M-683.6 282.882L133.809 -426.157L549.559 -261.829L-267.85 447.211L-683.6 282.882Z" fill="#B6D2FF"/>
</mask>
<g mask="url(#mask2_0_556)">
<path d="M-680.508 284.106L136.9 -424.936L130.709 -427.378L-686.7 281.66L-680.508 284.106Z" fill="#B6D2FF"/>
</g>
</g>
</g>
<mask id="mask3_0_556" style="mask-type:alpha" maskUnits="userSpaceOnUse" x="-245" y="-215" width="1488" height="761">
<path d="M-244.167 545.291L1242.5 545.292L1242.5 -214.56L-244.167 -214.56L-244.167 545.291Z" fill="url(#paint3_linear_0_556)"/>
</mask>
<g mask="url(#mask3_0_556)">
<g filter="url(#filter1_f_0_556)">
<path d="M636.616 -262.896L1074.17 39.405L350.875 569L-86.6755 266.697L636.616 -262.896Z" fill="url(#paint4_linear_0_556)"/>
<mask id="mask4_0_556" style="mask-type:luminance" maskUnits="userSpaceOnUse" x="-87" y="-263" width="1162" height="832">
<path d="M636.616 -262.896L1074.17 39.405L350.875 569L-86.6755 266.697L636.616 -262.896Z" fill="#88E2FF"/>
</mask>
<g mask="url(#mask4_0_556)">
<path d="M-83.6843 268.762L639.607 -260.833L633.624 -264.964L-89.6592 264.632L-83.6843 268.762Z" fill="#88E2FF"/>
</g>
</g>
</g>
<mask id="mask5_0_556" style="mask-type:alpha" maskUnits="userSpaceOnUse" x="0" y="0" width="1600" height="569">
<path d="M0 569L1600 569L1600 0.00012207L4.97435e-05 -1.78061e-05L0 569Z" fill="url(#paint5_linear_0_556)"/>
</mask>
<g mask="url(#mask5_0_556)">
<g filter="url(#filter2_f_0_556)">
<path d="M1908.3 474.049L1480.8 783.534L429.758 49.0731L857.262 -260.412L1908.3 474.049Z" fill="url(#paint6_linear_0_556)"/>
<mask id="mask6_0_556" style="mask-type:luminance" maskUnits="userSpaceOnUse" x="429" y="-261" width="1480" height="1045">
<path d="M1908.3 474.049L1480.8 783.534L429.758 49.0731L857.262 -260.412L1908.3 474.049Z" fill="#88E2FF"/>
</mask>
<g mask="url(#mask6_0_556)">
<path d="M854.342 -258.296L1905.38 476.162L1911.22 471.935L860.182 -262.528L854.342 -258.296Z" fill="#88E2FF"/>
</g>
</g>
</g>
<mask id="mask7_0_556" style="mask-type:luminance" maskUnits="userSpaceOnUse" x="-16" y="-307" width="1949" height="1163">
<path d="M-11.2987 704.941L1932.98 855.497L1929.26 -155.572L-15.0109 -306.128L-11.2987 704.941Z" fill="white"/>
</mask>
<g mask="url(#mask7_0_556)">
<g opacity="0.75" filter="url(#filter3_f_0_556)">
<mask id="mask8_0_556" style="mask-type:alpha" maskUnits="userSpaceOnUse" x="3" y="0" width="1597" height="571">
<path d="M3.33374 570.185L1599.17 570.186L1599.17 0.000305176L3.33379 0.000165664L3.33374 570.185Z" fill="url(#paint7_linear_0_556)"/>
</mask>
<g mask="url(#mask8_0_556)">
<path d="M711.875 -392.361L1846.02 472.698L1331.62 813.86L197.483 -51.198L711.875 -392.361Z" fill="url(#paint8_linear_0_556)"/>
<mask id="mask9_0_556" style="mask-type:luminance" maskUnits="userSpaceOnUse" x="197" y="-394" width="1652" height="1209">
<path d="M197.485 814.036L1848.68 814.036L1848.68 -393.98L197.485 -393.98L197.485 814.036Z" fill="white"/>
<path d="M711.875 -392.361L1846.02 472.698L1331.62 813.86L197.483 -51.198L711.875 -392.361Z" fill="#CDFFE8"/>
</mask>
<g mask="url(#mask9_0_556)">
<path d="M709.433 -390.743L1843.58 474.315L1848.45 471.081L714.308 -393.979L709.433 -390.743Z" fill="#CDFFE8"/>
</g>
</g>
</g>
</g>
</g>
</g>
<g clip-path="url(#clip2_0_556)">
<mask id="mask10_0_556" style="mask-type:alpha" maskUnits="userSpaceOnUse" x="0" y="0" width="1600" height="1600">
<rect width="1600" height="1600" fill="url(#paint9_linear_0_556)"/>
</mask>
<g mask="url(#mask10_0_556)">
<ellipse cx="551.712" cy="88.9377" rx="1.21107" ry="1.21106" transform="rotate(-135.422 551.712 88.9377)" fill="white" fill-opacity="0.6"/>
<circle cx="787.904" cy="1409.57" r="1.21145" transform="rotate(57.6642 787.904 1409.57)" fill="white" fill-opacity="0.6"/>
<circle cx="622.957" cy="1.48132" r="1.21145" transform="rotate(-165.176 622.957 1.48132)" fill="white" fill-opacity="0.6"/>
<circle cx="665.358" cy="381.876" r="1.21145" transform="rotate(-165.176 665.358 381.876)" fill="white" fill-opacity="0.6"/>
<ellipse cx="406.338" cy="512.946" rx="1.21107" ry="1.21106" transform="rotate(-135.422 406.338 512.946)" fill="white" fill-opacity="0.6"/>
<circle cx="1025.51" cy="1029.48" r="1.21145" transform="rotate(57.6642 1025.51 1029.48)" fill="white" fill-opacity="0.6"/>
<circle cx="707.174" cy="441.735" r="1.21145" transform="rotate(-165.176 707.174 441.735)" fill="white" fill-opacity="0.6"/>
<circle cx="749.574" cy="822.13" r="1.21145" transform="rotate(-165.176 749.574 822.13)" fill="white" fill-opacity="0.6"/>
<ellipse cx="1.71297" cy="1290.7" rx="1.21107" ry="1.21106" transform="rotate(-135.422 1.71297 1290.7)" fill="white" fill-opacity="0.6"/>
<circle cx="1595.71" cy="363.542" r="1.21145" transform="rotate(57.6642 1595.71 363.542)" fill="white" fill-opacity="0.6"/>
<circle cx="741.875" cy="1317.76" r="1.21145" transform="rotate(-165.176 741.875 1317.76)" fill="white" fill-opacity="0.6"/>
<circle cx="76.5919" cy="384.158" r="1.21145" transform="rotate(-165.176 76.5919 384.158)" fill="white" fill-opacity="0.6"/>
<circle cx="266.647" cy="1215.78" r="1.21145" transform="rotate(-12.8022 266.647 1215.78)" fill="white" fill-opacity="0.6"/>
<ellipse cx="1320.7" cy="376.532" rx="1.21145" ry="1.21145" transform="rotate(-179.716 1320.7 376.532)" fill="white" fill-opacity="0.6"/>
<ellipse cx="934.7" cy="1121.23" rx="1.21109" ry="1.21104" transform="rotate(-42.5563 934.7 1121.23)" fill="white" fill-opacity="0.6"/>
<ellipse cx="977.101" cy="1501.63" rx="1.21109" ry="1.21104" transform="rotate(-42.5563 977.101 1501.63)" fill="white" fill-opacity="0.6"/>
<circle cx="137.528" cy="1290.49" r="1.21145" transform="rotate(-36.1592 137.528 1290.49)" fill="white" fill-opacity="0.6"/>
<ellipse cx="1463.38" cy="332.994" rx="1.21145" ry="1.21145" transform="rotate(156.927 1463.38 332.994)" fill="white" fill-opacity="0.6"/>
<ellipse cx="859.68" cy="1250.18" rx="1.21145" ry="1.21145" transform="rotate(-65.9133 859.68 1250.18)" fill="white" fill-opacity="0.6"/>
<ellipse cx="194.397" cy="316.578" rx="1.21145" ry="1.21145" transform="rotate(-65.9133 194.397 316.578)" fill="white" fill-opacity="0.6"/>
<ellipse cx="484.117" cy="1215.39" rx="1.21108" ry="1.21105" transform="rotate(-44.1497 484.117 1215.39)" fill="white" fill-opacity="0.6"/>
<circle cx="1108.79" cy="327.668" r="1.21145" transform="rotate(148.936 1108.79 327.668)" fill="white" fill-opacity="0.6"/>
<ellipse cx="1123.31" cy="1012.98" rx="1.21145" ry="1.21145" transform="rotate(-73.9038 1123.31 1012.98)" fill="white" fill-opacity="0.6"/>
<ellipse cx="1165.71" cy="1393.37" rx="1.21145" ry="1.21145" transform="rotate(-73.9038 1165.71 1393.37)" fill="white" fill-opacity="0.6"/>
<ellipse cx="232.643" cy="941.258" rx="1.21105" ry="1.21108" transform="rotate(-133.599 232.643 941.258)" fill="white" fill-opacity="0.6"/>
<ellipse cx="1291.66" cy="651.62" rx="1.21145" ry="1.21145" transform="rotate(59.4872 1291.66 651.62)" fill="white" fill-opacity="0.6"/>
<ellipse cx="768.941" cy="899.781" rx="1.21145" ry="1.21145" transform="rotate(-163.353 768.941 899.781)" fill="white" fill-opacity="0.6"/>
<ellipse cx="811.343" cy="1280.18" rx="1.21145" ry="1.21145" transform="rotate(-163.353 811.343 1280.18)" fill="white" fill-opacity="0.6"/>
<ellipse cx="618.004" cy="1268.74" rx="3.63436" ry="3.63436" transform="rotate(-90 618.004 1268.74)" fill="white" fill-opacity="0.6"/>
<ellipse cx="990.456" cy="245.396" rx="3.63436" ry="3.63436" transform="rotate(103.086 990.456 245.396)" fill="white" fill-opacity="0.6"/>
<ellipse cx="1266.02" cy="992.838" rx="3.63436" ry="3.63436" transform="rotate(-119.754 1266.02 992.838)" fill="white" fill-opacity="0.6"/>
<ellipse cx="1457.49" cy="569.495" rx="3.63436" ry="3.63436" transform="rotate(-119.754 1457.49 569.495)" fill="white" fill-opacity="0.6"/>
<ellipse cx="312.457" cy="1313.75" rx="3.63436" ry="3.63436" transform="rotate(-36.1592 312.457 1313.75)" fill="white" fill-opacity="0.6"/>
<ellipse cx="1298.26" cy="270.733" rx="3.63436" ry="3.63436" transform="rotate(156.927 1298.26 270.733)" fill="white" fill-opacity="0.6"/>
<ellipse cx="1023.09" cy="1183.55" rx="3.63436" ry="3.63436" transform="rotate(-65.9133 1023.09 1183.55)" fill="white" fill-opacity="0.6"/>
<ellipse cx="1066.03" cy="1508.21" rx="3.63436" ry="3.63436" transform="rotate(-65.9133 1066.03 1508.21)" fill="white" fill-opacity="0.6"/>
<circle cx="786.198" cy="1411.78" r="3.63436" transform="rotate(-44.1497 786.198 1411.78)" fill="white" fill-opacity="0.6"/>
<circle cx="859.018" cy="67.9838" r="3.63436" transform="rotate(148.936 859.018 67.9838)" fill="white" fill-opacity="0.6"/>
<ellipse cx="1483.03" cy="1033.56" rx="3.63436" ry="3.63436" transform="rotate(-73.9038 1483.03 1033.56)" fill="white" fill-opacity="0.6"/>
<ellipse cx="344.918" cy="400.644" rx="3.63436" ry="3.63436" transform="rotate(-73.9038 344.918 400.644)" fill="white" fill-opacity="0.6"/>
<ellipse cx="354.395" cy="641.081" rx="3.63436" ry="3.63436" transform="rotate(-133.599 354.395 641.081)" fill="white" fill-opacity="0.6"/>
<ellipse cx="1105.11" cy="916.436" rx="3.63436" ry="3.63436" transform="rotate(59.4872 1105.11 916.436)" fill="white" fill-opacity="0.6"/>
<ellipse cx="725.669" cy="578.758" rx="3.63436" ry="3.63436" transform="rotate(-163.353 725.669 578.758)" fill="white" fill-opacity="0.6"/>
<ellipse cx="768.069" cy="959.155" rx="3.63436" ry="3.63436" transform="rotate(-163.353 768.069 959.155)" fill="white" fill-opacity="0.6"/>
<circle cx="499.282" cy="1193.63" r="1.21145" transform="rotate(-90 499.282 1193.63)" fill="white" fill-opacity="0.6"/>
<circle cx="1089.09" cy="345.437" r="1.21145" transform="rotate(103.086 1089.09 345.437)" fill="white" fill-opacity="0.6"/>
<ellipse cx="1125.67" cy="986.551" rx="1.21145" ry="1.21145" transform="rotate(-119.754 1125.67 986.551)" fill="white" fill-opacity="0.6"/>
<ellipse cx="1598.35" cy="654.624" rx="1.21145" ry="1.21145" transform="rotate(-119.754 1598.35 654.624)" fill="white" fill-opacity="0.6"/>
<circle cx="399.965" cy="1386.79" r="1.21145" transform="rotate(-36.1592 399.965 1386.79)" fill="white" fill-opacity="0.6"/>
<ellipse cx="1229.56" cy="179.771" rx="1.21145" ry="1.21145" transform="rotate(156.927 1229.56 179.771)" fill="white" fill-opacity="0.6"/>
<ellipse cx="1135.31" cy="1203.54" rx="1.21145" ry="1.21145" transform="rotate(-65.9133 1135.31 1203.54)" fill="white" fill-opacity="0.6"/>
<ellipse cx="1177.72" cy="1583.94" rx="1.21145" ry="1.21145" transform="rotate(-65.9133 1177.72 1583.94)" fill="white" fill-opacity="0.6"/>
<ellipse cx="757.394" cy="1274.28" rx="1.21108" ry="1.21105" transform="rotate(-44.1497 757.394 1274.28)" fill="white" fill-opacity="0.6"/>
<circle cx="855.944" cy="208.437" r="1.21145" transform="rotate(148.936 855.944 208.437)" fill="white" fill-opacity="0.6"/>
<ellipse cx="1389.78" cy="928.477" rx="1.21145" ry="1.21145" transform="rotate(-73.9038 1389.78 928.477)" fill="white" fill-opacity="0.6"/>
<ellipse cx="1432.18" cy="1308.87" rx="1.21145" ry="1.21145" transform="rotate(-73.9038 1432.18 1308.87)" fill="white" fill-opacity="0.6"/>
<ellipse cx="294.155" cy="668.558" rx="1.21105" ry="1.21108" transform="rotate(-133.599 294.155 668.558)" fill="white" fill-opacity="0.6"/>
<ellipse cx="1170.01" cy="903.312" rx="1.21145" ry="1.21145" transform="rotate(59.4872 1170.01 903.312)" fill="white" fill-opacity="0.6"/>
<ellipse cx="687.006" cy="632.508" rx="1.21145" ry="1.21145" transform="rotate(-163.353 687.006 632.508)" fill="white" fill-opacity="0.6"/>
<ellipse cx="729.406" cy="1012.9" rx="1.21145" ry="1.21145" transform="rotate(-163.353 729.406 1012.9)" fill="white" fill-opacity="0.6"/>
</g>
</g>
</g>
<defs>
<filter id="filter0_f_0_556" x="-843.6" y="-586.157" width="3007.9" height="1204.72" filterUnits="userSpaceOnUse" color-interpolation-filters="sRGB">
<feFlood flood-opacity="0" result="BackgroundImageFix"/>
<feBlend mode="normal" in="SourceGraphic" in2="BackgroundImageFix" result="shape"/>
<feGaussianBlur stdDeviation="80" result="effect1_foregroundBlur_0_556"/>
</filter>
<filter id="filter1_f_0_556" x="-126.675" y="-302.896" width="1240.84" height="911.895" filterUnits="userSpaceOnUse" color-interpolation-filters="sRGB">
<feFlood flood-opacity="0" result="BackgroundImageFix"/>
<feBlend mode="normal" in="SourceGraphic" in2="BackgroundImageFix" result="shape"/>
<feGaussianBlur stdDeviation="20" result="effect1_foregroundBlur_0_556"/>
</filter>
<filter id="filter2_f_0_556" x="389.758" y="-300.412" width="1558.55" height="1123.95" filterUnits="userSpaceOnUse" color-interpolation-filters="sRGB">
<feFlood flood-opacity="0" result="BackgroundImageFix"/>
<feBlend mode="normal" in="SourceGraphic" in2="BackgroundImageFix" result="shape"/>
<feGaussianBlur stdDeviation="20" result="effect1_foregroundBlur_0_556"/>
</filter>
<filter id="filter3_f_0_556" x="141.483" y="-55.9999" width="1513.68" height="682.185" filterUnits="userSpaceOnUse" color-interpolation-filters="sRGB">
<feFlood flood-opacity="0" result="BackgroundImageFix"/>
<feBlend mode="normal" in="SourceGraphic" in2="BackgroundImageFix" result="shape"/>
<feGaussianBlur stdDeviation="28" result="effect1_foregroundBlur_0_556"/>
</filter>
<linearGradient id="paint0_linear_0_556" x1="800" y1="-120.561" x2="800" y2="1600" gradientUnits="userSpaceOnUse">
<stop stop-color="#C985FF"/>
<stop offset="0.533005" stop-color="#B7B0FF" stop-opacity="0.494792"/>
<stop offset="1" stop-color="#E0BEFB" stop-opacity="0"/>
</linearGradient>
<radialGradient id="paint1_radial_0_556" cx="0" cy="0" r="1" gradientUnits="userSpaceOnUse" gradientTransform="translate(1200.83 -29.6353) rotate(81.2853) scale(159.502 732.782)">
<stop stop-color="#3FFCA1"/>
<stop offset="0.661142" stop-color="#838FFF" stop-opacity="0.489583"/>
<stop offset="1" stop-color="#60B3FF" stop-opacity="0"/>
</radialGradient>
<linearGradient id="paint2_linear_0_556" x1="-274.9" y1="-71.6347" x2="-87.3546" y2="181.242" gradientUnits="userSpaceOnUse">
<stop stop-color="#5F9FFF"/>
<stop offset="0.395833" stop-color="#7E69FF" stop-opacity="0.57"/>
<stop offset="1" stop-color="#755FFF" stop-opacity="0"/>
</linearGradient>
<linearGradient id="paint3_linear_0_556" x1="290.833" y1="-26.6718" x2="429.708" y2="340.219" gradientUnits="userSpaceOnUse">
<stop/>
<stop offset="1" stop-opacity="0"/>
</linearGradient>
<linearGradient id="paint4_linear_0_556" x1="855.392" y1="-111.743" x2="374.017" y2="584.99" gradientUnits="userSpaceOnUse">
<stop stop-color="#5F9FFF"/>
<stop offset="0.395833" stop-color="#699CFF" stop-opacity="0.57"/>
<stop offset="1" stop-color="#5F6FFF" stop-opacity="0"/>
</linearGradient>
<linearGradient id="paint5_linear_0_556" x1="965.833" y1="6.01995e-05" x2="931.295" y2="283.031" gradientUnits="userSpaceOnUse">
<stop/>
<stop offset="1" stop-opacity="0"/>
</linearGradient>
<linearGradient id="paint6_linear_0_556" x1="1694.55" y1="628.791" x2="984.268" y2="-352.355" gradientUnits="userSpaceOnUse">
<stop stop-color="#5F9FFF"/>
<stop offset="0.395833" stop-color="#699CFF" stop-opacity="0.57"/>
<stop offset="1" stop-color="#5F6FFF" stop-opacity="0"/>
</linearGradient>
<linearGradient id="paint7_linear_0_556" x1="1044.17" y1="-162.283" x2="963.473" y2="387.851" gradientUnits="userSpaceOnUse">
<stop/>
<stop offset="1" stop-opacity="0"/>
</linearGradient>
<linearGradient id="paint8_linear_0_556" x1="999.392" y1="-2.56678" x2="910.661" y2="296.187" gradientUnits="userSpaceOnUse">
<stop stop-color="#98FFCE"/>
<stop offset="0.479167" stop-color="#60B3FF" stop-opacity="0.74"/>
<stop offset="1" stop-color="#838FFF" stop-opacity="0"/>
</linearGradient>
<linearGradient id="paint9_linear_0_556" x1="800" y1="0" x2="800" y2="1600" gradientUnits="userSpaceOnUse">
<stop stop-color="#D9D9D9"/>
<stop offset="1" stop-color="#D9D9D9" stop-opacity="0"/>
</linearGradient>
<clipPath id="clip0_0_556">
<rect width="1600" height="1600" fill="white"/>
</clipPath>
<clipPath id="clip1_0_556">
<rect width="1600" height="569" fill="white" transform="translate(1600 569) rotate(-180)"/>
</clipPath>
<clipPath id="clip2_0_556">
<rect width="1600" height="1600" fill="white"/>
</clipPath>
</defs>
</svg>
