<svg width="32" height="32" viewBox="0 0 32 32" fill="none" xmlns="http://www.w3.org/2000/svg">
<rect width="32" height="32" rx="16" fill="#847603"/>
<path d="M22.6665 9.33331H9.33317C8.4165 9.33331 7.67484 10.0833 7.67484 11L7.6665 21C7.6665 21.9166 8.4165 22.6666 9.33317 22.6666H22.6665C23.5832 22.6666 24.3332 21.9166 24.3332 21V11C24.3332 10.0833 23.5832 9.33331 22.6665 9.33331ZM22.3332 12.875L16.4415 16.5583C16.1748 16.725 15.8248 16.725 15.5582 16.5583L9.6665 12.875C9.45817 12.7416 9.33317 12.5166 9.33317 12.275C9.33317 11.7166 9.9415 11.3833 10.4165 11.675L15.9998 15.1666L21.5832 11.675C22.0582 11.3833 22.6665 11.7166 22.6665 12.275C22.6665 12.5166 22.5415 12.7416 22.3332 12.875Z" fill="white"/>
</svg>
