<svg width="32" height="32" viewBox="0 0 32 32" fill="none" xmlns="http://www.w3.org/2000/svg">
<circle cx="16" cy="16" r="16" fill="#0A66C2"/>
<path d="M24.665 23.3333H21.3522V18.1363C21.3522 16.897 21.3301 15.3017 19.6293 15.3017C17.9038 15.3017 17.6398 16.6519 17.6398 18.046V23.3329H14.3271V12.6457H17.5073V14.1062H17.5519C18.1994 12.9972 19.4079 12.3323 20.6897 12.38C24.0473 12.38 24.6664 14.5923 24.6664 17.4705L24.665 23.3333Z" fill="white"/>
<path d="M10.5894 11.1848C10.5892 11.1848 10.5891 11.1848 10.589 11.1848C9.53433 11.1848 8.6665 10.3156 8.6665 9.25913C8.6665 8.20266 9.53433 7.33331 10.589 7.33331C11.6435 7.33331 12.5112 8.20246 12.5114 9.25873C12.5114 9.25883 12.5114 9.25893 12.5114 9.25913C12.5114 10.3154 11.6438 11.1847 10.5894 11.1848Z" fill="white"/>
<path d="M12.2459 23.3333H8.92969V12.6458H12.2459V23.3333Z" fill="white"/>
</svg>
