<svg width="32" height="32" viewBox="0 0 32 32" fill="none" xmlns="http://www.w3.org/2000/svg">
<path d="M16.0002 2.88165C10.4002 2.88165 5.3335 7.17499 5.3335 13.815C5.3335 18.055 8.60016 23.0417 15.1202 28.7883C15.6268 29.2283 16.3868 29.2283 16.8935 28.7883C23.4002 23.0417 26.6668 18.055 26.6668 13.815C26.6668 7.17499 21.6002 2.88165 16.0002 2.88165ZM16.0002 16.215C14.5335 16.215 13.3335 15.015 13.3335 13.5483C13.3335 12.0817 14.5335 10.8817 16.0002 10.8817C17.4668 10.8817 18.6668 12.0817 18.6668 13.5483C18.6668 15.015 17.4668 16.215 16.0002 16.215Z" fill="#D41503"/>
</svg>
