<svg width="56" height="56" viewBox="0 0 56 56" fill="none" xmlns="http://www.w3.org/2000/svg">
<path d="M34.6665 26.3334C37.4332 26.3334 39.6498 24.1 39.6498 21.3334C39.6498 18.5667 37.4332 16.3334 34.6665 16.3334C31.8998 16.3334 29.6665 18.5667 29.6665 21.3334C29.6665 24.1 31.8998 26.3334 34.6665 26.3334ZM21.3332 26.3334C24.0998 26.3334 26.3165 24.1 26.3165 21.3334C26.3165 18.5667 24.0998 16.3334 21.3332 16.3334C18.5665 16.3334 16.3332 18.5667 16.3332 21.3334C16.3332 24.1 18.5665 26.3334 21.3332 26.3334ZM21.3332 29.6667C17.4498 29.6667 9.6665 31.6167 9.6665 35.5V39.6667H32.9998V35.5C32.9998 31.6167 25.2165 29.6667 21.3332 29.6667ZM34.6665 29.6667C34.1832 29.6667 33.6332 29.7 33.0498 29.75C34.9832 31.15 36.3332 33.0334 36.3332 35.5V39.6667H46.3332V35.5C46.3332 31.6167 38.5498 29.6667 34.6665 29.6667Z" fill="#695E02"/>
</svg>
