<svg width="56" height="56" viewBox="0 0 56 56" fill="none" xmlns="http://www.w3.org/2000/svg">
<path d="M39.1418 25.3167L43.2751 21.1833L36.2084 14.1167L32.0751 18.25L39.1418 25.3167ZM29.7084 20.6L14.3918 35.9333V43H21.4584L36.7751 27.6833L29.7084 20.6ZM39.3918 37.1667C39.3918 40.8167 35.1584 43 31.0584 43C30.2584 43 29.3918 42.8833 29.3918 42.8833C29.3918 42.3167 29.3918 39.5 29.3918 39.5C29.3918 39.5 30.1584 39.6667 31.0584 39.6667C33.6251 39.6667 36.0584 38.45 36.0584 37.1667C36.0584 36.3833 35.2584 35.7167 34.0084 35.1667L36.4751 32.7C38.2584 33.75 39.3918 35.15 39.3918 37.1667ZM15.3584 30.25C13.7418 29.3167 12.7251 28.1 12.7251 26.3333C12.7251 23.3333 15.8751 21.95 18.6584 20.7333C20.3751 19.9667 22.7251 18.9333 22.7251 18C22.7251 17.3167 21.4251 16.3333 19.3918 16.3333C17.3251 16.3333 16.0584 17.35 16.0584 18H12.7251C12.7251 15.25 15.5584 13 19.3918 13C23.1251 13 26.0584 15.2 26.0584 18C26.0584 21.1167 22.8418 22.5333 19.9918 23.7833C18.4251 24.4667 16.0584 25.5 16.0584 26.3333C16.0584 26.85 16.7751 27.3333 17.8418 27.7667L15.3584 30.25Z" fill="#695E02"/>
</svg>
