<svg width="56" height="56" viewBox="0 0 56 56" fill="none" xmlns="http://www.w3.org/2000/svg">
<mask id="mask0_2059_434" style="mask-type:alpha" maskUnits="userSpaceOnUse" x="9" y="7" width="17" height="42">
<rect width="17" height="41" transform="matrix(-1 0 0 1 26 7.5)" fill="#D9D9D9"/>
</mask>
<g mask="url(#mask0_2059_434)">
<g filter="url(#filter0_f_2059_434)">
<rect x="13" y="13.5" width="27" height="27" rx="9" fill="url(#paint0_linear_2059_434)"/>
</g>
</g>
<mask id="mask1_2059_434" style="mask-type:alpha" maskUnits="userSpaceOnUse" x="28" y="7" width="19" height="42">
<rect x="28" y="7.5" width="19" height="41" fill="#D9D9D9"/>
</mask>
<g mask="url(#mask1_2059_434)">
<path d="M15 22.5C15 17.5294 19.0294 13.5 24 13.5H33C37.9706 13.5 42 17.5294 42 22.5V31.5C42 36.4706 37.9706 40.5 33 40.5H24C19.0294 40.5 15 36.4706 15 31.5V22.5Z" fill="url(#paint1_linear_2059_434)"/>
</g>
<defs>
<filter id="filter0_f_2059_434" x="9" y="9.5" width="35" height="35" filterUnits="userSpaceOnUse" color-interpolation-filters="sRGB">
<feFlood flood-opacity="0" result="BackgroundImageFix"/>
<feBlend mode="normal" in="SourceGraphic" in2="BackgroundImageFix" result="shape"/>
<feGaussianBlur stdDeviation="2" result="effect1_foregroundBlur_2059_434"/>
</filter>
<linearGradient id="paint0_linear_2059_434" x1="26.5" y1="13.5" x2="26.5" y2="40.5" gradientUnits="userSpaceOnUse">
<stop stop-color="#FC7AFF"/>
<stop offset="1" stop-color="#4F4BFF"/>
</linearGradient>
<linearGradient id="paint1_linear_2059_434" x1="28.5" y1="13.5" x2="28.5" y2="40.5" gradientUnits="userSpaceOnUse">
<stop stop-color="#FC7AFF"/>
<stop offset="1" stop-color="#4F4BFF"/>
</linearGradient>
</defs>
</svg>
