<svg width="56" height="56" viewBox="0 0 56 56" fill="none" xmlns="http://www.w3.org/2000/svg">
<path d="M29.9416 17.6348C31.0557 16.5207 30.6095 14.6586 29.0385 14.5391C28.469 14.4957 27.8992 14.7278 27.4954 15.1317L15.1319 27.4952C14.728 27.899 14.4959 28.4688 14.5393 29.0383C14.6588 30.6093 16.5209 31.0555 17.635 29.9414L29.9416 17.6348Z" fill="url(#paint0_linear_2055_421)"/>
<path d="M19.6173 33.616C18.2126 35.0206 18.0179 37.3021 19.5685 38.5437C21.8788 40.3934 24.8102 41.4997 27.9999 41.4997C35.4557 41.4997 41.4999 35.4555 41.4999 27.9997C41.4999 24.81 40.3936 21.8786 38.5439 19.5683C37.3023 18.0177 35.0208 18.2125 33.6162 19.6171L19.6173 33.616Z" fill="url(#paint1_linear_2055_421)"/>
<path d="M19.8994 19.8992C18.4427 21.3559 16.7715 20.2262 18.1864 18.729C18.3622 18.543 18.5432 18.362 18.7292 18.1862C20.2264 16.7713 21.3561 18.4425 19.8994 19.8992Z" fill="url(#paint2_linear_2055_421)"/>
<defs>
<linearGradient id="paint0_linear_2055_421" x1="28.0002" y1="14.5003" x2="28.0002" y2="41.4997" gradientUnits="userSpaceOnUse">
<stop stop-color="#85FFF8"/>
<stop offset="1" stop-color="#633CFF"/>
</linearGradient>
<linearGradient id="paint1_linear_2055_421" x1="28.0002" y1="14.5003" x2="28.0002" y2="41.4997" gradientUnits="userSpaceOnUse">
<stop stop-color="#85FFF8"/>
<stop offset="1" stop-color="#633CFF"/>
</linearGradient>
<linearGradient id="paint2_linear_2055_421" x1="28.0002" y1="14.5003" x2="28.0002" y2="41.4997" gradientUnits="userSpaceOnUse">
<stop stop-color="#85FFF8"/>
<stop offset="1" stop-color="#633CFF"/>
</linearGradient>
</defs>
</svg>
