<svg width="56" height="56" viewBox="0 0 56 56" fill="none" xmlns="http://www.w3.org/2000/svg">
<path fill-rule="evenodd" clip-rule="evenodd" d="M13.5 18C13.5 16.8954 14.3954 16 15.5 16H31.5C33.7091 16 35.5 17.7909 35.5 20C35.5 21.1046 34.6046 22 33.5 22H17.5C15.2909 22 13.5 20.2091 13.5 18ZM19.5 36C19.5 34.8954 20.3954 34 21.5 34H38.5C40.7091 34 42.5 35.7909 42.5 38C42.5 39.1046 41.6046 40 40.5 40H23.5C21.2909 40 19.5 38.2091 19.5 36ZM26.7 26C24.9327 26 23.5 27.4327 23.5 29.2C23.5 29.6418 23.8582 30 24.3 30H28.3C30.0673 30 31.5 28.5673 31.5 26.8C31.5 26.3582 31.1418 26 30.7 26H26.7Z" fill="url(#paint0_linear_2055_40)"/>
<defs>
<linearGradient id="paint0_linear_2055_40" x1="27.5" y1="14" x2="27.5" y2="38" gradientUnits="userSpaceOnUse">
<stop stop-color="#ACFF8F"/>
<stop offset="1" stop-color="#7A4BFF"/>
</linearGradient>
</defs>
</svg>
