<svg width="86" height="86" viewBox="0 0 86 86" fill="none" xmlns="http://www.w3.org/2000/svg">
<g filter="url(#filter0_ddd_0_791)">
<g clip-path="url(#clip0_0_791)">
<rect x="15" y="5" width="56" height="56" rx="24" fill="url(#paint0_linear_0_791)" fill-opacity="0.2" shape-rendering="crispEdges"/>
<path d="M44.9416 22.6348C46.0557 21.5207 45.6095 19.6586 44.0385 19.5391C43.469 19.4957 42.8992 19.7278 42.4954 20.1317L30.1319 32.4952C29.728 32.899 29.4959 33.4688 29.5393 34.0383C29.6588 35.6093 31.5209 36.0555 32.635 34.9414L44.9416 22.6348Z" fill="url(#paint1_linear_0_791)"/>
<path d="M34.6173 38.616C33.2126 40.0206 33.0179 42.3021 34.5685 43.5437C36.8788 45.3934 39.8102 46.4997 42.9999 46.4997C50.4557 46.4997 56.4999 40.4555 56.4999 32.9997C56.4999 29.81 55.3936 26.8786 53.5439 24.5683C52.3023 23.0177 50.0208 23.2125 48.6162 24.6171L34.6173 38.616Z" fill="url(#paint2_linear_0_791)"/>
<path d="M34.8994 24.8992C33.4427 26.3559 31.7715 25.2262 33.1864 23.729C33.3622 23.543 33.5432 23.362 33.7292 23.1862C35.2264 21.7713 36.3561 23.4425 34.8994 24.8992Z" fill="url(#paint3_linear_0_791)"/>
</g>
<rect x="15.5" y="5.5" width="55" height="55" rx="23.5" stroke="url(#paint4_linear_0_791)" shape-rendering="crispEdges"/>
</g>
<defs>
<filter id="filter0_ddd_0_791" x="0" y="0" width="86" height="86" filterUnits="userSpaceOnUse" color-interpolation-filters="sRGB">
<feFlood flood-opacity="0" result="BackgroundImageFix"/>
<feColorMatrix in="SourceAlpha" type="matrix" values="0 0 0 0 0 0 0 0 0 0 0 0 0 0 0 0 0 0 127 0" result="hardAlpha"/>
<feOffset dy="10"/>
<feGaussianBlur stdDeviation="7.5"/>
<feComposite in2="hardAlpha" operator="out"/>
<feColorMatrix type="matrix" values="0 0 0 0 0 0 0 0 0 0 0 0 0 0 0 0 0 0 0.08 0"/>
<feBlend mode="normal" in2="BackgroundImageFix" result="effect1_dropShadow_0_791"/>
<feColorMatrix in="SourceAlpha" type="matrix" values="0 0 0 0 0 0 0 0 0 0 0 0 0 0 0 0 0 0 127 0" result="hardAlpha"/>
<feOffset dy="3"/>
<feGaussianBlur stdDeviation="2.5"/>
<feComposite in2="hardAlpha" operator="out"/>
<feColorMatrix type="matrix" values="0 0 0 0 0 0 0 0 0 0 0 0 0 0 0 0 0 0 0.08 0"/>
<feBlend mode="normal" in2="effect1_dropShadow_0_791" result="effect2_dropShadow_0_791"/>
<feColorMatrix in="SourceAlpha" type="matrix" values="0 0 0 0 0 0 0 0 0 0 0 0 0 0 0 0 0 0 127 0" result="hardAlpha"/>
<feOffset dy="1"/>
<feGaussianBlur stdDeviation="1"/>
<feComposite in2="hardAlpha" operator="out"/>
<feColorMatrix type="matrix" values="0 0 0 0 0 0 0 0 0 0 0 0 0 0 0 0 0 0 0.04 0"/>
<feBlend mode="normal" in2="effect2_dropShadow_0_791" result="effect3_dropShadow_0_791"/>
<feBlend mode="normal" in="SourceGraphic" in2="effect3_dropShadow_0_791" result="shape"/>
</filter>
<linearGradient id="paint0_linear_0_791" x1="43" y1="5" x2="43" y2="61" gradientUnits="userSpaceOnUse">
<stop stop-color="white"/>
<stop offset="1" stop-color="white" stop-opacity="0"/>
</linearGradient>
<linearGradient id="paint1_linear_0_791" x1="43.0002" y1="19.5003" x2="43.0002" y2="46.4997" gradientUnits="userSpaceOnUse">
<stop stop-color="#85FFF8"/>
<stop offset="1" stop-color="#633CFF"/>
</linearGradient>
<linearGradient id="paint2_linear_0_791" x1="43.0002" y1="19.5003" x2="43.0002" y2="46.4997" gradientUnits="userSpaceOnUse">
<stop stop-color="#85FFF8"/>
<stop offset="1" stop-color="#633CFF"/>
</linearGradient>
<linearGradient id="paint3_linear_0_791" x1="43.0002" y1="19.5003" x2="43.0002" y2="46.4997" gradientUnits="userSpaceOnUse">
<stop stop-color="#85FFF8"/>
<stop offset="1" stop-color="#633CFF"/>
</linearGradient>
<linearGradient id="paint4_linear_0_791" x1="43" y1="5" x2="43" y2="61" gradientUnits="userSpaceOnUse">
<stop stop-color="white" stop-opacity="0.6"/>
<stop offset="1" stop-opacity="0.4"/>
</linearGradient>
<clipPath id="clip0_0_791">
<rect x="15" y="5" width="56" height="56" rx="24" fill="white"/>
</clipPath>
</defs>
</svg>
