<svg width="86" height="86" viewBox="0 0 86 86" fill="none" xmlns="http://www.w3.org/2000/svg">
<g filter="url(#filter0_ddd_0_806)">
<g clip-path="url(#clip0_0_806)">
<rect x="15" y="5" width="56" height="56" rx="24" fill="url(#paint0_linear_0_806)" fill-opacity="0.2" shape-rendering="crispEdges"/>
<path fill-rule="evenodd" clip-rule="evenodd" d="M28.5 23C28.5 21.8954 29.3954 21 30.5 21H46.5C48.7091 21 50.5 22.7909 50.5 25C50.5 26.1046 49.6046 27 48.5 27H32.5C30.2909 27 28.5 25.2091 28.5 23ZM34.5 41C34.5 39.8954 35.3954 39 36.5 39H53.5C55.7091 39 57.5 40.7909 57.5 43C57.5 44.1046 56.6046 45 55.5 45H38.5C36.2909 45 34.5 43.2091 34.5 41ZM41.7 31C39.9327 31 38.5 32.4327 38.5 34.2C38.5 34.6418 38.8582 35 39.3 35H43.3C45.0673 35 46.5 33.5673 46.5 31.8C46.5 31.3582 46.1418 31 45.7 31H41.7Z" fill="url(#paint1_linear_0_806)"/>
</g>
<rect x="15.5" y="5.5" width="55" height="55" rx="23.5" stroke="url(#paint2_linear_0_806)" shape-rendering="crispEdges"/>
</g>
<defs>
<filter id="filter0_ddd_0_806" x="0" y="0" width="86" height="86" filterUnits="userSpaceOnUse" color-interpolation-filters="sRGB">
<feFlood flood-opacity="0" result="BackgroundImageFix"/>
<feColorMatrix in="SourceAlpha" type="matrix" values="0 0 0 0 0 0 0 0 0 0 0 0 0 0 0 0 0 0 127 0" result="hardAlpha"/>
<feOffset dy="10"/>
<feGaussianBlur stdDeviation="7.5"/>
<feComposite in2="hardAlpha" operator="out"/>
<feColorMatrix type="matrix" values="0 0 0 0 0 0 0 0 0 0 0 0 0 0 0 0 0 0 0.08 0"/>
<feBlend mode="normal" in2="BackgroundImageFix" result="effect1_dropShadow_0_806"/>
<feColorMatrix in="SourceAlpha" type="matrix" values="0 0 0 0 0 0 0 0 0 0 0 0 0 0 0 0 0 0 127 0" result="hardAlpha"/>
<feOffset dy="3"/>
<feGaussianBlur stdDeviation="2.5"/>
<feComposite in2="hardAlpha" operator="out"/>
<feColorMatrix type="matrix" values="0 0 0 0 0 0 0 0 0 0 0 0 0 0 0 0 0 0 0.08 0"/>
<feBlend mode="normal" in2="effect1_dropShadow_0_806" result="effect2_dropShadow_0_806"/>
<feColorMatrix in="SourceAlpha" type="matrix" values="0 0 0 0 0 0 0 0 0 0 0 0 0 0 0 0 0 0 127 0" result="hardAlpha"/>
<feOffset dy="1"/>
<feGaussianBlur stdDeviation="1"/>
<feComposite in2="hardAlpha" operator="out"/>
<feColorMatrix type="matrix" values="0 0 0 0 0 0 0 0 0 0 0 0 0 0 0 0 0 0 0.04 0"/>
<feBlend mode="normal" in2="effect2_dropShadow_0_806" result="effect3_dropShadow_0_806"/>
<feBlend mode="normal" in="SourceGraphic" in2="effect3_dropShadow_0_806" result="shape"/>
</filter>
<linearGradient id="paint0_linear_0_806" x1="43" y1="5" x2="43" y2="61" gradientUnits="userSpaceOnUse">
<stop stop-color="white"/>
<stop offset="1" stop-color="white" stop-opacity="0"/>
</linearGradient>
<linearGradient id="paint1_linear_0_806" x1="42.5" y1="19" x2="42.5" y2="43" gradientUnits="userSpaceOnUse">
<stop stop-color="#ACFF8F"/>
<stop offset="1" stop-color="#7A4BFF"/>
</linearGradient>
<linearGradient id="paint2_linear_0_806" x1="43" y1="5" x2="43" y2="61" gradientUnits="userSpaceOnUse">
<stop stop-color="white" stop-opacity="0.6"/>
<stop offset="1" stop-opacity="0.4"/>
</linearGradient>
<clipPath id="clip0_0_806">
<rect x="15" y="5" width="56" height="56" rx="24" fill="white"/>
</clipPath>
</defs>
</svg>
